<?xml version="1.0" encoding="utf-8"?>
<!-- Generator: Adobe Illustrator 26.0.1, SVG Export Plug-In . SVG Version: 6.00 Build 0)  -->
<svg version="1.1" id="Layer_1" xmlns="http://www.w3.org/2000/svg" xmlns:xlink="http://www.w3.org/1999/xlink" x="0px" y="0px"
	 viewBox="0 0 400 400" style="enable-background:new 0 0 400 400;" xml:space="preserve">
<style type="text/css">
	.st0{fill:#FBB03B;}
</style>
<g>
	<g>
		<g>
			<path class="st0" d="M396,201.9c0-28.2-35.6-48.8-84.4-60.8c16.7-43.2,19.6-80.7-2-96.7c-5.9-4.4-13.2-6.6-21.6-6.6
				c-25.2,0-60,20.2-95.8,53.8c-36.2-35.9-71.4-57.6-96.4-57.6c-7.7,0-14.3,2-19.8,5.9c-17,12.2-19.5,39.7-7.2,79.6
				c2.4,7.8,5.4,16,8.8,24.4C34.4,156.3,4,175.8,4,201.9c0,25.7,29.6,45,71.7,57.4c-17.9,44.7-21.6,83.7,0.6,100.1
				c5.9,4.4,13.2,6.6,21.6,6.6c25.2,0,60-20.2,95.7-53.7c34.3,32.7,67.2,52.2,91,52.2c7.7,0,14.3-2,19.8-5.9
				c21-15,18.2-51.7,2.1-94.6C357.9,252.1,396,231.1,396,201.9z M288,53.9c4.9,0,9,1.2,12.1,3.4c12.7,9.5,11.3,39.8-4.5,80.2
				c-21.8-4.3-45.5-7.1-69.5-8.3c-7.6-9.2-15.2-17.9-22.8-26C238.2,70.7,269.4,53.9,288,53.9z M132.3,240.8
				c3.8,5.2,7.6,10.3,11.4,15.4c-16.7-1.8-32-4.5-45.8-7.7c4.9-10.6,10.6-21.7,17.2-33.2C120.6,223.8,126.2,232.3,132.3,240.8z
				 M99.9,154.9c12.6-2.8,26.4-5.2,41.4-6.9c-2.6,3.3-5.1,6.6-7.6,10c-6.4,8.6-12.5,17.5-18.4,26.5
				C109.6,174.5,104.4,164.6,99.9,154.9z M124.4,199.9c6.7-10.6,14-21.4,22.2-32.3c5.6-7.6,11.3-14.7,16.9-21.6
				c11.7-0.8,23.8-1.2,36.5-1.2c6.2,0,12.2,0.1,18.2,0.3c5.6,7,11.2,14.3,16.8,22.1c9.4,13.2,17.8,26.1,25.3,38.7
				c-6.4,10-13.3,20.1-20.9,30.4c-5.8,7.9-11.7,15.3-17.6,22.4c-7.1,0.3-14.3,0.4-21.7,0.4c-11.9,0-23.2-0.4-34.2-1.1
				c-6.8-8.3-13.6-17.1-20.4-26.6C137.9,220.9,130.9,210.4,124.4,199.9z M252.2,245.8c5.9-7.9,11.5-16.1,16.9-24.4
				c5.8,10.6,10.8,20.8,15.2,30.6c-12.6,2.2-26.3,4-40.8,5.2C246.4,253.5,249.3,249.7,252.2,245.8z M248,157.8
				c-2.8-4-5.7-7.8-8.6-11.6c18,1.4,34.7,3.6,49.8,6.5c-5.4,12-11.9,24.6-19.6,37.8C262.8,179.3,255.6,168.4,248,157.8z
				 M204.7,128.6c-1.6,0-3.1,0-4.7,0c-7.3,0-14.7,0.2-22,0.5c4.7-5.2,9.3-10,13.9-14.6C196.1,119,200.4,123.7,204.7,128.6z M85.3,53
				c2.7-1.9,6.2-2.9,10.4-2.9c18.4,0,49.7,18,84.9,52.8c-8.4,8.5-16.8,17.7-25.2,27.6c-21.7,1.8-42.9,5-62.2,9.5
				c-3.6-8.6-6.7-17-9.2-25C74.5,83.6,74.9,60.5,85.3,53z M20.1,201.9c0-15.4,23.9-31.7,64-43c6.2,13.4,13.4,27.1,21.6,41
				c-9,14.9-16.9,29.8-23.6,44.5C43.2,233.1,20.1,217,20.1,201.9z M97.9,349.9c-4.9,0-9-1.2-12.1-3.4c-13-9.7-11.2-41.2,5.6-83
				c20.4,4.8,43,8.2,66.3,10.1c8.1,9.8,16.3,18.9,24.5,27.4C147.5,333.2,116.4,349.9,97.9,349.9z M180,274.8
				c6.7,0.2,13.4,0.4,20,0.4c2.5,0,5,0,7.5-0.1c-4.6,5.1-9.2,9.9-13.8,14.5C189.2,284.9,184.6,280,180,274.8z M295,345.5
				c-13.7,9.8-48.7-5.6-89.8-44.6c8.2-8.2,16.3-17.1,24.3-26.6c21-1.2,41.7-3.6,61-7.1C305.8,307.2,307.2,336.7,295,345.5z
				 M300.4,248.8c-6-14-13.3-28.4-21.5-42.7c10.2-16.7,19.2-33.6,26.5-49.9c46.4,11.2,74.6,29.1,74.6,45.8
				C379.9,219.2,349.7,237.6,300.4,248.8z"/>
			<path class="st0" d="M200,170.7c17.2,0,31.2,14,31.2,31.2s-14,31.2-31.2,31.2s-31.2-14-31.2-31.2
				C168.8,184.6,182.8,170.7,200,170.7z"/>
		</g>
	</g>
</g>
</svg>
